<?xml version="1.0" encoding="UTF-8"?>
<!DOCTYPE svg PUBLIC "-//W3C//DTD SVG 1.1//EN" "http://www.w3.org/Graphics/SVG/1.1/DTD/svg11.dtd">
<!-- Creator: CorelDRAW 2019 (64-Bit) -->
<svg xmlns="http://www.w3.org/2000/svg" xml:space="preserve" width="10.5cm" height="8.5cm" version="1.1" shape-rendering="geometricPrecision" text-rendering="geometricPrecision" image-rendering="optimizeQuality" fill-rule="evenodd" clip-rule="evenodd"
viewBox="0 0 10500 8500"
 xmlns:xlink="http://www.w3.org/1999/xlink">
 <g id="Layer_x0020_1">
  <metadata id="CorelCorpID_0Corel-Layer"/>
  <path fill="#FEFEFE" fill-rule="nonzero" d="M316 7603c0,-19 7,-36 21,-50 14,-14 31,-21 50,-21 19,0 36,7 50,21 14,14 21,31 21,50 0,19 -7,36 -21,50 -14,14 -31,21 -50,21 -19,0 -36,-7 -50,-21 -14,-14 -21,-31 -21,-50zm5653 -6052c-47,27 -79,77 -79,136 0,86 70,156 156,156 86,0 156,-70 156,-156 0,-56 -30,-106 -75,-133 0,-82 1,-127 1,-172 1,-103 2,-207 2,-305 0,-247 -102,-471 -268,-633 -165,-162 -393,-262 -644,-262 -251,0 -479,100 -644,262 -165,162 -268,386 -268,633l0 0 0 30 -153 0 0 143 152 0 -1 308c-41,28 -67,75 -67,128 0,86 70,156 156,156 86,0 156,-70 156,-156 0,-61 -35,-114 -87,-140l2 -470 0 0c0,-203 84,-387 220,-521 136,-134 325,-216 534,-216 209,0 398,83 534,216 136,133 220,317 220,521l0 30 -144 0 0 143 144 0c0,58 -1,94 -1,131 0,57 -1,114 -1,170zm-4742 5362l-136 -485 80 0 72 280 26 104c1,-5 9,-39 23,-100l71 -284 78 0 68 282 22 92 26 -94 78 -281 74 0 -142 485 -79 0 -72 -290 -18 -83 -91 373 -81 0zm628 0l-136 -485 80 0 72 280 26 104c1,-5 9,-39 23,-100l71 -284 78 0 68 282 22 92 26 -94 78 -281 74 0 -142 485 -79 0 -72 -290 -18 -83 -91 373 -81 0zm628 0l-136 -485 80 0 72 280 26 104c1,-5 9,-39 23,-100l71 -284 78 0 68 282 22 92 26 -94 78 -281 74 0 -142 485 -79 0 -72 -290 -18 -83 -91 373 -81 0zm521 0l0 -93 87 0 0 93 -87 0zm515 -61c-28,26 -56,44 -82,55 -26,11 -54,16 -84,16 -50,0 -88,-13 -114,-39 -27,-26 -40,-59 -40,-99 0,-24 5,-45 15,-65 10,-20 23,-35 40,-47 16,-12 35,-21 55,-27 15,-4 38,-8 68,-12 62,-8 107,-17 137,-28 0,-11 0,-18 0,-21 0,-33 -7,-57 -22,-71 -20,-19 -49,-28 -87,-28 -36,0 -63,7 -80,20 -17,14 -30,38 -38,72l-75 -11c7,-35 18,-62 34,-84 16,-21 38,-37 68,-49 29,-11 64,-17 103,-17 39,0 70,5 94,15 24,10 42,22 53,37 11,15 19,34 24,56 2,14 4,39 4,76l0 109c0,76 2,124 5,145 3,20 9,40 19,59l-80 0c-8,-17 -13,-38 -15,-61zm-6 -182c-28,12 -70,22 -125,31 -32,5 -54,10 -67,16 -13,6 -23,15 -30,26 -7,12 -11,25 -11,39 0,22 8,40 23,54 15,15 38,22 68,22 29,0 56,-7 79,-21 23,-14 40,-33 51,-56 8,-19 12,-46 12,-82l0 -30zm195 243l0 -485 69 0 0 69c14,-24 33,-43 56,-57 23,-14 50,-22 80,-22 33,0 61,7 82,22 21,15 36,36 45,63 36,-57 82,-85 140,-85 45,0 80,13 104,40 24,27 36,68 36,123l0 333 -77 0 0 -305c0,-33 -3,-56 -8,-71 -5,-15 -14,-26 -27,-35 -13,-9 -28,-13 -46,-13 -32,0 -58,11 -79,34 -21,23 -31,59 -31,109l0 282 -76 0 0 -315c0,-37 -6,-64 -19,-82 -12,-18 -33,-27 -61,-27 -21,0 -41,6 -60,18 -18,12 -31,30 -40,53 -8,23 -12,57 -12,101l0 252 -77 0zm1032 -157l79 11c-12,49 -35,88 -69,115 -34,27 -76,41 -129,41 -66,0 -118,-22 -157,-65 -39,-43 -58,-105 -58,-183 0,-81 19,-145 58,-190 39,-45 90,-67 152,-67 60,0 109,22 147,66 38,44 57,106 57,186 0,5 0,12 0,22l-336 0c3,53 17,94 42,122 25,28 57,42 94,42 28,0 52,-8 72,-24 20,-16 36,-41 47,-76zm-250 -132l251 0c-3,-41 -13,-71 -29,-92 -24,-32 -56,-47 -94,-47 -35,0 -65,13 -88,38 -24,25 -37,59 -40,101zm425 289l0 -485 69 0 0 74c18,-34 34,-57 49,-68 15,-11 31,-16 49,-16 26,0 52,9 79,26l-27 76c-19,-11 -37,-17 -56,-17 -17,0 -32,6 -45,16 -13,11 -23,26 -28,45 -9,29 -13,61 -13,96l0 254 -77 0zm457 -73l10 73c-21,5 -41,7 -58,7 -28,0 -49,-5 -64,-14 -15,-10 -26,-22 -32,-37 -6,-15 -9,-48 -9,-97l0 -280 -57 0 0 -64 57 0 0 -120 76 -49 0 170 77 0 0 64 -77 0 0 284c0,24 1,39 4,45 3,7 7,12 13,16 6,4 15,6 26,6 8,0 20,-1 33,-3zm370 13c-28,26 -56,44 -82,55 -26,11 -54,16 -84,16 -50,0 -88,-13 -114,-39 -27,-26 -40,-59 -40,-99 0,-24 5,-45 15,-65 10,-20 23,-35 40,-47 16,-12 35,-21 55,-27 15,-4 38,-8 68,-12 62,-8 107,-17 137,-28 0,-11 0,-18 0,-21 0,-33 -7,-57 -22,-71 -20,-19 -49,-28 -87,-28 -36,0 -63,7 -80,20 -17,14 -30,38 -38,72l-75 -11c7,-35 18,-62 34,-84 16,-21 38,-37 68,-49 29,-11 64,-17 103,-17 39,0 70,5 94,15 24,10 42,22 53,37 11,15 19,34 24,56 2,14 4,39 4,76l0 109c0,76 2,124 5,145 3,20 9,40 19,59l-80 0c-8,-17 -13,-38 -15,-61zm-6 -182c-28,12 -70,22 -125,31 -32,5 -54,10 -67,16 -13,6 -23,15 -30,26 -7,12 -11,25 -11,39 0,22 8,40 23,54 15,15 38,22 68,22 29,0 56,-7 79,-21 23,-14 40,-33 51,-56 8,-19 12,-46 12,-82l0 -30zm361 170l10 73c-21,5 -41,7 -58,7 -28,0 -49,-5 -64,-14 -15,-10 -26,-22 -32,-37 -6,-15 -9,-48 -9,-97l0 -280 -57 0 0 -64 57 0 0 -120 76 -49 0 170 77 0 0 64 -77 0 0 284c0,24 1,39 4,45 3,7 7,12 13,16 6,4 15,6 26,6 8,0 20,-1 33,-3zm146 73l-71 0 0 -670 77 0 0 239c32,-43 73,-65 124,-65 28,0 54,6 79,18 25,12 45,29 61,51 16,22 29,48 38,79 9,31 14,64 14,98 0,83 -19,147 -57,192 -38,45 -84,68 -138,68 -53,0 -95,-24 -125,-71l0 61zm-1 -246c0,58 7,100 22,126 24,42 57,63 98,63 33,0 62,-16 87,-47 24,-31 37,-78 37,-139 0,-63 -12,-110 -35,-140 -23,-30 -52,-45 -85,-45 -33,0 -62,16 -87,47 -24,31 -37,76 -37,135zm709 185c-28,26 -56,44 -82,55 -26,11 -54,16 -84,16 -50,0 -88,-13 -114,-39 -27,-26 -40,-59 -40,-99 0,-24 5,-45 15,-65 10,-20 23,-35 40,-47 16,-12 35,-21 55,-27 15,-4 38,-8 68,-12 62,-8 107,-17 137,-28 0,-11 0,-18 0,-21 0,-33 -7,-57 -22,-71 -20,-19 -49,-28 -87,-28 -36,0 -63,7 -80,20 -17,14 -30,38 -38,72l-75 -11c7,-35 18,-62 34,-84 16,-21 38,-37 68,-49 29,-11 64,-17 103,-17 39,0 70,5 94,15 24,10 42,22 53,37 11,15 19,34 24,56 2,14 4,39 4,76l0 109c0,76 2,124 5,145 3,20 9,40 19,59l-80 0c-8,-17 -13,-38 -15,-61zm-6 -182c-28,12 -70,22 -125,31 -32,5 -54,10 -67,16 -13,6 -23,15 -30,26 -7,12 -11,25 -11,39 0,22 8,40 23,54 15,15 38,22 68,22 29,0 56,-7 79,-21 23,-14 40,-33 51,-56 8,-19 12,-46 12,-82l0 -30zm181 283l74 11c3,25 12,43 26,54 19,15 45,23 78,23 35,0 63,-8 82,-23 19,-15 32,-37 39,-64 4,-17 6,-52 6,-105 -33,42 -75,64 -125,64 -62,0 -110,-24 -144,-72 -34,-48 -51,-106 -51,-173 0,-46 8,-89 23,-128 15,-39 38,-69 68,-90 30,-21 64,-32 104,-32 53,0 97,23 132,70l0 -60 70 0 0 419c0,76 -7,129 -21,161 -14,31 -37,56 -68,75 -31,18 -69,27 -114,27 -54,0 -97,-13 -130,-39 -33,-26 -49,-65 -48,-117zm63 -291c0,63 12,110 35,139 24,29 53,44 88,44 35,0 65,-15 89,-44 24,-29 36,-74 36,-136 0,-59 -12,-104 -37,-134 -25,-30 -54,-45 -89,-45 -34,0 -63,15 -87,44 -24,30 -36,74 -36,132zm457 251l0 -93 87 0 0 93 -87 0zm515 -178l75 11c-8,55 -29,99 -63,130 -34,31 -75,47 -124,47 -62,0 -111,-22 -149,-65 -38,-43 -56,-105 -56,-186 0,-52 8,-98 24,-137 16,-39 41,-69 74,-88 33,-20 69,-29 108,-29 49,0 89,13 120,40 31,27 51,65 60,113l-74 12c-7,-33 -20,-57 -38,-74 -18,-16 -40,-25 -65,-25 -39,0 -70,15 -94,44 -24,30 -36,77 -36,141 0,65 12,112 35,142 23,30 54,44 91,44 30,0 55,-10 75,-30 20,-20 33,-50 38,-91zm111 -65c0,-90 23,-156 70,-199 39,-36 86,-54 142,-54 62,0 113,22 152,65 39,43 59,104 59,181 0,62 -9,111 -26,147 -17,36 -43,63 -76,83 -33,20 -70,30 -109,30 -63,0 -114,-22 -153,-65 -39,-43 -58,-106 -58,-188zm78 0c0,62 13,109 38,139 25,31 57,46 96,46 38,0 70,-15 95,-46 25,-31 38,-78 38,-142 0,-60 -13,-105 -38,-136 -25,-31 -57,-46 -95,-46 -38,0 -70,15 -96,46 -25,31 -38,77 -38,139zm434 243l0 -485 69 0 0 69c14,-24 33,-43 56,-57 23,-14 50,-22 80,-22 33,0 61,7 82,22 21,15 36,36 45,63 36,-57 82,-85 140,-85 45,0 80,13 104,40 24,27 36,68 36,123l0 333 -77 0 0 -305c0,-33 -3,-56 -8,-71 -5,-15 -14,-26 -27,-35 -13,-9 -28,-13 -46,-13 -32,0 -58,11 -79,34 -21,23 -31,59 -31,109l0 282 -76 0 0 -315c0,-37 -6,-64 -19,-82 -12,-18 -33,-27 -61,-27 -21,0 -41,6 -60,18 -18,12 -31,30 -40,53 -8,23 -12,57 -12,101l0 252 -77 0zm-6464 -3357l5857 0 0 105 -5857 0 0 -105zm301 413c52,0 92,19 121,56 35,44 52,116 52,218 0,101 -18,174 -52,218 -29,37 -69,55 -121,55 -52,0 -94,-20 -126,-60 -32,-40 -48,-111 -48,-214 0,-101 18,-173 52,-217 29,-37 69,-55 121,-55zm0 85c-12,0 -23,4 -33,12 -10,8 -17,22 -22,42 -7,26 -10,71 -10,134 0,63 3,106 9,129 6,23 14,39 24,47 9,8 20,12 32,12 12,0 23,-4 33,-12 9,-8 17,-22 22,-42 7,-26 10,-71 10,-134 0,-63 -3,-106 -9,-129 -6,-23 -14,-39 -23,-47 -9,-8 -20,-12 -32,-12zm245 328l99 -11c2,20 9,35 19,45 10,10 23,15 40,15 21,0 39,-10 53,-29 15,-20 24,-60 28,-121 -26,30 -58,45 -96,45 -42,0 -78,-16 -109,-49 -30,-32 -46,-75 -46,-126 0,-54 16,-98 48,-131 32,-33 73,-50 123,-50 54,0 99,21 133,63 35,42 52,111 52,207 0,98 -18,168 -54,211 -36,43 -83,65 -141,65 -42,0 -75,-11 -101,-34 -26,-22 -42,-56 -49,-100zm230 -224c0,-33 -8,-58 -23,-77 -15,-18 -33,-27 -52,-27 -19,0 -35,7 -47,22 -13,15 -19,39 -19,73 0,34 7,60 20,76 14,16 30,24 51,24 20,0 36,-8 50,-23 13,-16 20,-38 20,-68zm442 348l-102 0 0 -386c-37,35 -81,61 -132,78l0 -93c27,-9 56,-25 87,-50 31,-24 53,-53 64,-85l83 0 0 537zm157 -124l99 -11c2,20 9,35 19,45 10,10 23,15 40,15 21,0 39,-10 53,-29 15,-20 24,-60 28,-121 -26,30 -58,45 -96,45 -42,0 -78,-16 -109,-49 -30,-32 -46,-75 -46,-126 0,-54 16,-98 48,-131 32,-33 73,-50 123,-50 54,0 99,21 133,63 35,42 52,111 52,207 0,98 -18,168 -54,211 -36,43 -83,65 -141,65 -42,0 -75,-11 -101,-34 -26,-22 -42,-56 -49,-100zm230 -224c0,-33 -8,-58 -23,-77 -15,-18 -33,-27 -52,-27 -19,0 -35,7 -47,22 -13,15 -19,39 -19,73 0,34 7,60 20,76 14,16 30,24 51,24 20,0 36,-8 50,-23 13,-16 20,-38 20,-68zm398 206l0 -102 201 0 0 102 -201 0zm445 -290l0 -95 350 0 0 75c-29,28 -58,69 -88,122 -30,53 -53,110 -68,170 -16,60 -23,113 -23,161l-98 0c2,-74 17,-149 46,-226 29,-77 67,-146 115,-206l-233 0zm418 308l99 -11c2,20 9,35 19,45 10,10 23,15 40,15 21,0 39,-10 53,-29 15,-20 24,-60 28,-121 -26,30 -58,45 -96,45 -42,0 -78,-16 -109,-49 -30,-32 -46,-75 -46,-126 0,-54 16,-98 48,-131 32,-33 73,-50 123,-50 54,0 99,21 133,63 35,42 52,111 52,207 0,98 -18,168 -54,211 -36,43 -83,65 -141,65 -42,0 -75,-11 -101,-34 -26,-22 -42,-56 -49,-100zm230 -224c0,-33 -8,-58 -23,-77 -15,-18 -33,-27 -52,-27 -19,0 -35,7 -47,22 -13,15 -19,39 -19,73 0,34 7,60 20,76 14,16 30,24 51,24 20,0 36,-8 50,-23 13,-16 20,-38 20,-68zm178 206l99 -12c3,25 12,45 25,58 14,13 30,20 50,20 21,0 39,-8 53,-24 14,-16 22,-38 22,-65 0,-26 -7,-46 -21,-61 -14,-15 -31,-23 -50,-23 -13,0 -29,3 -47,8l11 -83c28,1 49,-5 63,-18 15,-13 22,-30 22,-51 0,-18 -5,-32 -16,-43 -11,-11 -25,-16 -43,-16 -18,0 -32,6 -45,18 -12,12 -20,30 -23,53l-94 -16c7,-33 16,-59 30,-78 13,-19 32,-35 55,-46 24,-11 50,-17 80,-17 50,0 90,16 121,48 25,26 38,56 38,89 0,47 -26,85 -77,113 31,7 55,21 73,44 18,23 27,50 27,83 0,47 -17,87 -51,120 -34,33 -77,50 -128,50 -48,0 -88,-14 -120,-42 -32,-28 -50,-64 -55,-109zm628 18l99 -11c2,20 9,35 19,45 10,10 23,15 40,15 21,0 39,-10 53,-29 15,-20 24,-60 28,-121 -26,30 -58,45 -96,45 -42,0 -78,-16 -109,-49 -30,-32 -46,-75 -46,-126 0,-54 16,-98 48,-131 32,-33 73,-50 123,-50 54,0 99,21 133,63 35,42 52,111 52,207 0,98 -18,168 -54,211 -36,43 -83,65 -141,65 -42,0 -75,-11 -101,-34 -26,-22 -42,-56 -49,-100zm230 -224c0,-33 -8,-58 -23,-77 -15,-18 -33,-27 -52,-27 -19,0 -35,7 -47,22 -13,15 -19,39 -19,73 0,34 7,60 20,76 14,16 30,24 51,24 20,0 36,-8 50,-23 13,-16 20,-38 20,-68zm184 224l99 -11c2,20 9,35 19,45 10,10 23,15 40,15 21,0 39,-10 53,-29 15,-20 24,-60 28,-121 -26,30 -58,45 -96,45 -42,0 -78,-16 -109,-49 -30,-32 -46,-75 -46,-126 0,-54 16,-98 48,-131 32,-33 73,-50 123,-50 54,0 99,21 133,63 35,42 52,111 52,207 0,98 -18,168 -54,211 -36,43 -83,65 -141,65 -42,0 -75,-11 -101,-34 -26,-22 -42,-56 -49,-100zm230 -224c0,-33 -8,-58 -23,-77 -15,-18 -33,-27 -52,-27 -19,0 -35,7 -47,22 -13,15 -19,39 -19,73 0,34 7,60 20,76 14,16 30,24 51,24 20,0 36,-8 50,-23 13,-16 20,-38 20,-68zm385 206l99 -12c3,25 12,45 25,58 14,13 30,20 50,20 21,0 39,-8 53,-24 14,-16 21,-38 21,-65 0,-26 -7,-46 -21,-61 -14,-15 -31,-23 -50,-23 -13,0 -29,3 -47,8l11 -83c28,1 49,-5 63,-18 15,-13 22,-30 22,-51 0,-18 -5,-32 -16,-43 -11,-11 -25,-16 -43,-16 -18,0 -32,6 -45,18 -12,12 -20,30 -23,53l-94 -16c7,-33 16,-59 30,-78 13,-19 32,-35 55,-46 24,-11 50,-17 80,-17 50,0 90,16 121,48 25,26 38,56 38,89 0,47 -26,85 -77,113 31,7 55,21 73,44 18,23 27,50 27,83 0,47 -17,87 -51,120 -34,33 -77,50 -128,50 -48,0 -88,-14 -120,-42 -32,-28 -50,-64 -55,-109zm679 142l-102 0 0 -386c-37,35 -81,61 -132,78l0 -93c27,-9 56,-25 87,-50 31,-24 53,-53 64,-85l83 0 0 537zm-5477 336c52,0 92,19 121,56 35,44 52,116 52,218 0,101 -18,174 -52,218 -29,37 -69,55 -121,55 -52,0 -94,-20 -126,-60 -32,-40 -48,-111 -48,-214 0,-101 18,-173 52,-218 29,-37 69,-55 121,-55zm0 85c-12,0 -23,4 -33,12 -10,8 -17,22 -22,42 -7,26 -10,71 -10,134 0,63 3,106 9,129 6,23 14,39 23,47 9,8 20,12 32,12 12,0 23,-4 33,-12 9,-8 17,-22 22,-42 7,-26 10,-71 10,-134 0,-63 -3,-106 -9,-129 -6,-23 -14,-39 -23,-47 -9,-8 -20,-12 -32,-12zm587 357l0 95 -359 0c4,-36 16,-70 35,-102 19,-32 58,-75 115,-128 46,-43 74,-72 85,-87 14,-21 21,-42 21,-63 0,-23 -6,-40 -18,-53 -12,-12 -29,-18 -51,-18 -21,0 -38,6 -51,19 -13,13 -20,34 -22,64l-102 -10c6,-56 25,-97 57,-122 32,-24 72,-37 120,-37 53,0 94,14 124,43 30,28 45,64 45,106 0,24 -4,47 -13,69 -9,22 -22,44 -41,68 -12,16 -35,39 -67,68 -32,30 -53,49 -62,59 -9,10 -16,19 -21,28l203 0zm330 95l-102 0 0 -386c-37,35 -81,61 -132,78l0 -93c27,-9 56,-25 87,-50 31,-24 53,-53 64,-85l83 0 0 537zm163 -142l0 -102 201 0 0 102 -201 0zm791 -261l-99 11c-2,-20 -9,-35 -19,-45 -10,-10 -23,-15 -40,-15 -22,0 -40,10 -55,29 -15,19 -24,60 -28,121 25,-30 57,-45 95,-45 43,0 79,16 110,49 30,33 46,75 46,126 0,55 -16,99 -48,132 -32,33 -73,50 -123,50 -54,0 -98,-21 -133,-63 -35,-42 -52,-111 -52,-206 0,-98 18,-169 54,-212 36,-43 83,-65 141,-65 40,0 74,11 101,34 27,23 43,56 51,99zm-232 223c0,33 8,59 23,77 15,18 33,27 52,27 19,0 35,-7 47,-22 13,-15 19,-39 19,-73 0,-35 -7,-60 -20,-77 -14,-16 -31,-24 -51,-24 -20,0 -36,8 -50,23 -14,15 -20,38 -20,68zm301 43l102 -11c3,23 12,41 26,55 14,14 31,20 50,20 21,0 39,-9 54,-26 15,-18 22,-44 22,-79 0,-33 -7,-58 -22,-74 -15,-17 -34,-25 -57,-25 -29,0 -56,13 -79,39l-83 -12 52 -277 271 0 0 95 -193 0 -16 91c23,-11 46,-17 70,-17 45,0 84,17 116,50 32,33 47,76 47,129 0,44 -13,83 -38,118 -35,47 -83,71 -145,71 -49,0 -90,-13 -121,-40 -31,-27 -50,-62 -56,-107zm622 0l102 -11c3,23 12,41 26,55 14,14 31,20 50,20 21,0 39,-9 54,-26 15,-18 22,-44 22,-79 0,-33 -7,-58 -22,-74 -15,-17 -34,-25 -57,-25 -29,0 -56,13 -79,39l-83 -12 52 -277 271 0 0 95 -193 0 -16 91c23,-11 46,-17 70,-17 45,0 84,17 116,50 32,33 47,76 47,129 0,44 -13,83 -38,118 -35,47 -83,71 -145,71 -49,0 -90,-13 -121,-40 -31,-27 -50,-62 -56,-107zm417 13l99 -11c2,20 9,35 19,45 10,10 24,15 40,15 21,0 39,-10 53,-29 15,-20 24,-60 28,-121 -26,30 -58,45 -96,45 -42,0 -78,-16 -109,-49 -30,-32 -46,-75 -46,-126 0,-54 16,-98 48,-131 32,-33 73,-50 123,-50 54,0 99,21 133,63 35,42 52,111 52,207 0,98 -18,168 -54,211 -36,43 -83,65 -141,65 -42,0 -75,-11 -101,-34 -26,-22 -42,-56 -49,-100zm230 -224c0,-33 -8,-58 -23,-77 -15,-18 -33,-27 -52,-27 -19,0 -35,7 -47,22 -13,15 -19,39 -19,73 0,34 7,60 20,76 14,16 30,24 51,24 20,0 36,-8 50,-23 13,-16 20,-38 20,-68zm389 211l102 -11c3,23 12,41 26,55 14,14 31,20 50,20 21,0 39,-9 54,-26 15,-18 22,-44 22,-79 0,-33 -7,-58 -22,-74 -15,-17 -34,-25 -57,-25 -29,0 -56,13 -79,39l-83 -12 52 -277 271 0 0 95 -193 0 -16 91c23,-11 46,-17 70,-17 45,0 84,17 116,50 32,33 47,76 47,129 0,44 -13,83 -38,118 -35,47 -83,71 -145,71 -49,0 -90,-13 -121,-40 -31,-27 -50,-62 -56,-107zm675 137l-102 0 0 -386c-37,35 -81,61 -132,78l0 -93c27,-9 56,-25 87,-50 31,-24 53,-53 64,-85l83 0 0 537zm364 -124l99 -11c2,20 9,35 19,45 10,10 23,15 40,15 21,0 39,-10 53,-29 15,-20 24,-60 28,-121 -26,30 -58,45 -96,45 -42,0 -78,-16 -109,-49 -30,-32 -46,-75 -46,-126 0,-54 16,-98 48,-131 32,-33 73,-50 123,-50 54,0 99,21 133,63 35,42 52,111 52,207 0,98 -18,168 -54,211 -36,43 -83,65 -141,65 -42,0 -75,-11 -101,-34 -26,-22 -42,-56 -49,-100zm230 -224c0,-33 -8,-58 -23,-77 -15,-18 -33,-27 -52,-27 -19,0 -35,7 -47,22 -13,15 -19,39 -19,73 0,34 7,60 20,76 14,16 30,24 51,24 20,0 36,-8 50,-23 13,-16 20,-38 20,-68zm184 224l99 -11c2,20 9,35 19,45 10,10 23,15 40,15 21,0 39,-10 53,-29 15,-20 24,-60 28,-121 -26,30 -58,45 -96,45 -42,0 -78,-16 -109,-49 -30,-32 -46,-75 -46,-126 0,-54 16,-98 48,-131 32,-33 73,-50 123,-50 54,0 99,21 133,63 35,42 52,111 52,207 0,98 -18,168 -54,211 -36,43 -83,65 -141,65 -42,0 -75,-11 -101,-34 -26,-22 -42,-56 -49,-100zm230 -224c0,-33 -8,-58 -23,-77 -15,-18 -33,-27 -52,-27 -19,0 -35,7 -47,22 -13,15 -19,39 -19,73 0,34 7,60 20,76 14,16 30,24 51,24 20,0 36,-8 50,-23 13,-16 20,-38 20,-68zm-4623 -2405l0 203 -16 0c-5,-39 -14,-70 -28,-93 -13,-23 -33,-41 -58,-55 -25,-14 -50,-20 -77,-20 -30,0 -55,9 -75,27 -20,18 -30,39 -30,63 0,18 6,34 19,49 18,22 61,50 128,87 55,30 92,52 112,68 20,16 36,34 46,56 11,21 16,44 16,67 0,44 -17,83 -52,115 -35,32 -79,48 -133,48 -17,0 -33,-1 -48,-4 -9,-1 -27,-7 -56,-16 -28,-9 -46,-14 -53,-14 -7,0 -13,2 -17,7 -4,4 -7,13 -9,27l-16 0 0 -201 16 0c8,42 18,74 30,94 13,21 32,38 58,52 26,14 55,21 86,21 36,0 65,-10 85,-29 21,-19 31,-42 31,-68 0,-14 -4,-29 -12,-44 -8,-15 -20,-28 -37,-41 -11,-9 -42,-27 -92,-55 -50,-28 -86,-50 -107,-67 -21,-17 -37,-35 -48,-55 -11,-20 -17,-42 -17,-67 0,-42 16,-78 49,-109 32,-30 74,-46 124,-46 31,0 64,8 99,23 16,7 28,11 34,11 8,0 14,-2 18,-7 5,-5 9,-13 12,-27l16 0zm230 -15l0 290c32,-35 57,-58 76,-68 19,-10 38,-15 56,-15 22,0 42,6 58,19 16,12 28,32 36,58 5,19 8,52 8,101l0 140c0,25 2,42 6,51 3,7 8,12 15,16 7,4 20,6 38,6l0 16 -194 0 0 -16 9 0c18,0 31,-3 38,-8 7,-6 12,-14 15,-25 1,-5 1,-18 1,-40l0 -140c0,-43 -2,-72 -7,-85 -4,-14 -12,-24 -21,-31 -10,-7 -22,-10 -36,-10 -14,0 -29,4 -44,11 -15,8 -34,23 -55,45l0 210c0,27 1,44 5,50 3,6 9,12 17,17 8,4 22,7 42,7l0 16 -196 0 0 -16c18,0 31,-3 41,-8 6,-3 10,-8 14,-16 3,-8 5,-24 5,-49l0 -359c0,-45 -1,-73 -3,-83 -2,-10 -5,-17 -10,-21 -4,-4 -10,-6 -18,-6 -6,0 -16,2 -29,7l-6 -16 118 -49 20 0zm521 207c60,0 108,23 144,68 31,39 46,84 46,134 0,35 -9,71 -26,108 -17,36 -40,64 -70,82 -30,18 -63,28 -100,28 -60,0 -107,-24 -142,-71 -30,-40 -45,-85 -45,-135 0,-36 9,-72 27,-108 18,-36 42,-62 71,-80 29,-17 61,-26 93,-26zm-13 28c-15,0 -31,5 -46,14 -15,9 -28,25 -37,48 -10,23 -14,52 -14,88 0,58 12,107 34,149 23,42 53,63 91,63 28,0 51,-12 69,-35 18,-23 27,-63 27,-119 0,-70 -15,-125 -45,-166 -20,-28 -46,-41 -78,-41zm233 22l122 -49 16 0 0 92c21,-35 41,-59 62,-73 21,-14 42,-21 65,-21 40,0 73,15 100,47 33,38 49,88 49,149 0,68 -20,125 -59,169 -32,37 -73,55 -122,55 -21,0 -40,-3 -56,-9 -12,-4 -24,-13 -39,-26l0 121c0,27 2,45 5,52 3,7 9,13 17,18 8,4 23,6 45,6l0 16 -208 0 0 -16 11 0c16,0 30,-3 41,-9 6,-3 10,-8 13,-15 3,-7 5,-25 5,-54l0 -376c0,-25 -1,-41 -3,-48 -2,-7 -6,-12 -11,-15 -5,-3 -12,-5 -21,-5 -7,0 -16,2 -26,6l-5 -14zm138 69l0 148c0,32 1,53 4,63 4,17 14,32 30,44 16,13 36,19 60,19 29,0 52,-11 70,-34 23,-30 35,-71 35,-124 0,-61 -13,-107 -40,-140 -18,-23 -40,-34 -66,-34 -14,0 -28,3 -41,10 -10,5 -28,21 -51,47zm305 -69l122 -49 16 0 0 92c21,-35 41,-59 62,-73 21,-14 42,-21 65,-21 40,0 73,15 100,47 33,38 49,88 49,149 0,68 -20,125 -59,169 -32,37 -73,55 -122,55 -21,0 -40,-3 -56,-9 -12,-4 -24,-13 -39,-26l0 121c0,27 2,45 5,52 3,7 9,13 17,18 8,4 23,6 45,6l0 16 -208 0 0 -16 11 0c16,0 30,-3 41,-9 6,-3 10,-8 13,-15 3,-7 5,-25 5,-54l0 -376c0,-25 -1,-41 -3,-48 -2,-7 -6,-12 -11,-15 -5,-3 -12,-5 -21,-5 -7,0 -16,2 -26,6l-5 -14zm138 69l0 148c0,32 1,53 4,63 4,17 14,32 30,44 16,13 36,19 60,19 29,0 52,-11 70,-34 23,-30 35,-71 35,-124 0,-61 -13,-107 -40,-140 -18,-23 -40,-34 -66,-34 -14,0 -28,3 -41,10 -10,5 -28,21 -51,47zm435 -326c12,0 22,4 31,13 8,9 13,19 13,31 0,12 -4,23 -13,31 -9,9 -19,13 -31,13 -12,0 -23,-4 -31,-13 -9,-9 -13,-19 -13,-31 0,-12 4,-22 13,-31 9,-8 19,-13 31,-13zm36 207l0 319c0,25 2,41 5,49 4,8 9,14 16,18 7,4 20,6 39,6l0 16 -192 0 0 -16c19,0 32,-2 39,-6 7,-4 12,-10 16,-18 4,-9 6,-25 6,-49l0 -153c0,-43 -1,-70 -4,-83 -2,-9 -5,-16 -10,-19 -4,-4 -10,-5 -18,-5 -8,0 -18,2 -29,7l-6 -16 119 -49 19 0zm225 83c46,-55 90,-83 132,-83 22,0 40,5 56,16 16,11 28,29 37,53 6,17 9,44 9,80l0 169c0,25 2,42 6,51 3,7 8,13 15,17 7,4 20,6 39,6l0 16 -196 0 0 -16 8 0c18,0 31,-3 39,-8 7,-6 12,-14 15,-25 1,-4 2,-18 2,-40l0 -163c0,-36 -5,-63 -14,-79 -9,-16 -25,-25 -47,-25 -34,0 -68,19 -102,56l0 210c0,27 2,43 5,49 4,8 10,14 17,18 7,4 21,6 43,6l0 16 -197 0 0 -16 9 0c20,0 34,-5 41,-15 7,-10 11,-30 11,-58l0 -147c0,-48 -1,-76 -3,-87 -2,-10 -5,-18 -10,-21 -4,-4 -10,-6 -18,-6 -8,0 -18,2 -29,7l-6 -16 120 -49 19 0 0 83zm433 180c-24,-12 -43,-28 -56,-49 -13,-21 -19,-44 -19,-70 0,-39 15,-73 44,-101 29,-28 67,-42 113,-42 38,0 70,9 98,27l84 0c12,0 20,0 22,1 2,1 4,2 4,4 2,3 3,7 3,14 0,8 -1,13 -2,16 -1,1 -2,3 -4,3 -2,1 -9,1 -22,1l-52 0c16,21 24,47 24,80 0,37 -14,68 -42,95 -28,26 -66,39 -113,39 -20,0 -39,-3 -60,-9 -13,11 -21,21 -26,29 -4,8 -7,15 -7,21 0,5 2,10 7,14 5,5 14,8 28,10 8,1 28,2 61,3 59,1 98,4 115,6 27,4 48,14 64,30 16,16 24,36 24,60 0,32 -15,63 -46,92 -45,42 -104,63 -176,63 -56,0 -103,-13 -141,-38 -22,-14 -32,-30 -32,-45 0,-7 2,-14 5,-21 5,-11 15,-26 30,-45 2,-3 17,-18 44,-47 -15,-9 -26,-17 -32,-24 -6,-7 -9,-15 -9,-24 0,-10 4,-22 12,-36 8,-14 27,-33 56,-58zm75 -242c-21,0 -39,8 -53,25 -14,17 -22,43 -22,78 0,45 10,81 29,106 15,19 34,29 57,29 22,0 40,-8 54,-25 14,-16 21,-42 21,-77 0,-46 -10,-81 -30,-107 -15,-19 -33,-28 -57,-28zm-79 387c-14,15 -24,28 -31,41 -7,13 -10,24 -10,35 0,14 8,26 25,36 29,18 70,27 125,27 52,0 90,-9 115,-27 25,-18 37,-38 37,-59 0,-15 -7,-26 -22,-32 -15,-6 -45,-10 -89,-11 -65,-2 -115,-5 -149,-10zm943 -300c41,9 71,22 91,42 28,27 42,59 42,97 0,29 -9,57 -28,84 -18,27 -44,46 -76,58 -32,12 -81,18 -147,18l-276 0 0 -16 22 0c24,0 42,-8 52,-23 7,-10 10,-32 10,-64l0 -380c0,-36 -4,-59 -12,-69 -11,-13 -28,-19 -50,-19l-22 0 0 -16 253 0c47,0 85,3 114,10 43,10 76,29 99,55 23,26 34,57 34,91 0,29 -9,56 -27,79 -18,23 -44,40 -79,52zm-226 -24c11,2 23,4 36,5 14,1 29,1 45,1 42,0 74,-5 95,-14 21,-9 37,-23 49,-42 11,-19 17,-39 17,-61 0,-34 -14,-63 -42,-87 -28,-24 -69,-36 -122,-36 -29,0 -55,3 -78,9l0 224zm0 281c34,8 67,12 99,12 52,0 92,-12 120,-35 27,-23 41,-53 41,-87 0,-23 -6,-45 -19,-66 -13,-21 -33,-38 -61,-50 -28,-12 -63,-18 -104,-18 -18,0 -33,0 -46,1 -13,1 -23,2 -31,3l0 240zm660 -15c-41,31 -66,50 -77,55 -16,7 -32,11 -50,11 -27,0 -50,-9 -68,-28 -18,-19 -27,-43 -27,-74 0,-19 4,-36 13,-50 12,-20 32,-38 62,-55 29,-17 78,-38 146,-63l0 -15c0,-39 -6,-66 -19,-81 -13,-15 -31,-22 -55,-22 -18,0 -32,5 -43,15 -11,10 -16,21 -16,34l1 25c0,13 -3,24 -10,31 -7,7 -16,11 -27,11 -11,0 -20,-4 -26,-11 -7,-8 -10,-18 -10,-31 0,-25 13,-48 38,-69 25,-21 61,-31 107,-31 35,0 64,6 87,18 17,9 30,23 38,42 5,12 8,38 8,76l0 134c0,38 1,61 2,69 1,9 4,14 7,17 3,3 7,4 12,4 5,0 9,-1 12,-3 6,-4 18,-14 35,-32l0 24c-32,44 -63,65 -93,65 -14,0 -26,-5 -34,-15 -8,-10 -13,-27 -13,-50zm0 -28l0 -151c-44,17 -72,30 -85,37 -23,13 -39,26 -49,40 -10,14 -15,29 -15,45 0,21 6,38 19,52 12,14 27,21 43,21 22,0 51,-14 87,-43zm275 -60c-24,-12 -43,-28 -56,-49 -13,-21 -19,-44 -19,-70 0,-39 15,-73 44,-101 29,-28 67,-42 113,-42 38,0 70,9 98,27l84 0c12,0 20,0 22,1 2,1 4,2 4,4 2,3 3,7 3,14 0,8 -1,13 -2,16 -1,1 -2,3 -4,3 -2,1 -9,1 -22,1l-51 0c16,21 24,47 24,80 0,37 -14,68 -42,95 -28,26 -66,39 -113,39 -20,0 -39,-3 -60,-9 -13,11 -21,21 -26,29 -4,8 -7,15 -7,21 0,5 2,10 7,14 5,5 14,8 28,10 8,1 28,2 61,3 59,1 98,4 115,6 27,4 48,14 64,30 16,16 24,36 24,60 0,32 -15,63 -46,92 -45,42 -104,63 -176,63 -56,0 -103,-13 -141,-38 -22,-14 -32,-30 -32,-45 0,-7 2,-14 5,-21 5,-11 15,-26 30,-45 2,-3 17,-18 44,-47 -15,-9 -26,-17 -32,-24 -6,-7 -9,-15 -9,-24 0,-10 4,-22 12,-36 8,-14 27,-33 57,-58zm75 -242c-21,0 -39,8 -53,25 -14,17 -22,43 -22,78 0,45 10,81 29,106 15,19 34,29 57,29 22,0 40,-8 54,-25 14,-16 21,-42 21,-77 0,-46 -10,-81 -30,-107 -15,-19 -34,-28 -57,-28zm-79 387c-14,15 -24,28 -31,41 -7,13 -10,24 -10,35 0,14 8,26 25,36 29,18 70,27 125,27 52,0 90,-9 115,-27 25,-18 37,-38 37,-59 0,-15 -7,-26 -22,-32 -15,-6 -45,-10 -89,-11 -65,-2 -115,-5 -149,-10zm-4390 -940l-243 0 -30 68c-10,23 -14,42 -14,56 0,20 8,34 23,44 9,5 32,10 68,12l0 18 -231 0 0 -18c25,-4 45,-14 61,-31 16,-17 36,-52 59,-106l248 -554 10 0 250 569c24,55 44,89 59,103 12,11 28,17 49,19l0 18 -336 0 0 -18 14 0c27,0 46,-4 57,-12 8,-5 11,-13 11,-24 0,-6 -1,-13 -3,-19 -1,-3 -6,-16 -15,-39l-38 -87zm-16 -38l-104 -237 -106 237 210 0zm813 -243l0 64c26,-29 51,-49 73,-60 22,-11 47,-17 73,-17 31,0 56,7 77,21 21,14 37,36 48,66 27,-31 54,-53 79,-67 25,-14 51,-20 79,-20 33,0 60,8 79,23 20,15 33,35 41,58 8,23 12,61 12,112l0 196c0,37 3,60 10,69 6,9 20,15 41,17l0 18 -247 0 0 -18c20,-2 34,-9 43,-23 6,-9 9,-30 9,-63l0 -206c0,-43 -2,-70 -5,-82 -3,-12 -9,-20 -16,-26 -7,-6 -16,-8 -26,-8 -15,0 -30,5 -45,16 -15,11 -30,27 -46,48l0 257c0,34 3,56 9,65 8,13 23,20 45,21l0 18 -248 0 0 -18c13,-1 24,-4 31,-10 8,-6 13,-13 15,-22 3,-8 4,-27 4,-55l0 -206c0,-44 -2,-71 -5,-82 -3,-11 -9,-20 -17,-26 -8,-6 -17,-9 -26,-9 -14,0 -26,4 -37,11 -16,11 -33,29 -51,55l0 257c0,34 3,56 10,67 6,11 20,17 41,19l0 18 -246 0 0 -18c20,-2 34,-9 43,-19 6,-8 9,-30 9,-67l0 -272c0,-37 -3,-59 -10,-68 -7,-9 -20,-15 -41,-18l0 -18 195 0zm1322 222l-263 0c3,63 20,114 51,150 24,28 52,42 85,42 21,0 39,-6 56,-17 17,-11 35,-32 54,-62l17 12c-26,53 -55,90 -86,112 -31,22 -68,33 -109,33 -71,0 -125,-27 -161,-82 -29,-44 -44,-98 -44,-164 0,-80 22,-143 65,-190 43,-47 94,-71 152,-71 48,0 91,20 126,59 36,40 55,99 58,177zm-126 -34c0,-55 -3,-93 -9,-113 -6,-20 -15,-36 -28,-46 -7,-6 -17,-9 -29,-9 -18,0 -32,9 -44,26 -20,30 -30,72 -30,125l0 18 139 0zm624 -189l0 109c31,-49 59,-82 83,-98 24,-16 47,-24 69,-24 19,0 34,6 46,18 11,12 17,28 17,50 0,23 -6,41 -17,53 -11,13 -24,19 -40,19 -18,0 -34,-6 -47,-17 -13,-12 -21,-18 -23,-19 -4,-2 -7,-3 -12,-3 -10,0 -19,4 -28,11 -14,12 -24,28 -32,50 -11,33 -16,70 -16,110l0 110 0 29c0,20 1,32 4,38 4,9 10,16 18,20 8,4 22,7 41,8l0 18 -260 0 0 -18c21,-2 35,-8 42,-17 7,-10 11,-35 11,-77l0 -265c0,-28 -1,-45 -4,-53 -3,-10 -8,-17 -15,-21 -6,-5 -18,-8 -34,-9l0 -18 196 0zm698 -176l0 176 113 0 0 50 -113 0 0 296c0,28 1,46 4,54 2,8 7,15 13,19 6,5 12,8 18,8 22,0 43,-17 63,-50l15 11c-28,65 -73,98 -135,98 -30,0 -56,-8 -77,-25 -21,-17 -34,-36 -40,-57 -3,-12 -5,-43 -5,-94l0 -259 -63 0 0 -18c43,-30 80,-62 110,-96 30,-34 57,-71 79,-113l17 0zm664 584c-58,52 -111,78 -157,78 -27,0 -50,-9 -68,-27 -18,-18 -27,-40 -27,-67 0,-37 16,-69 47,-99 31,-29 100,-68 206,-116l0 -48c0,-36 -2,-59 -6,-68 -4,-9 -11,-17 -22,-24 -11,-7 -23,-10 -37,-10 -22,0 -41,5 -55,15 -9,6 -13,13 -13,22 0,7 5,16 14,27 13,15 19,29 19,42 0,17 -6,31 -19,43 -12,12 -29,18 -49,18 -22,0 -40,-6 -54,-19 -15,-13 -22,-28 -22,-45 0,-25 10,-48 29,-70 20,-22 47,-39 81,-51 35,-12 71,-18 109,-18 45,0 81,10 108,29 27,19 44,40 52,63 5,14 7,47 7,99l0 185c0,22 1,35 3,41 2,6 4,10 8,13 4,3 7,4 12,4 9,0 18,-6 28,-18l15 12c-17,25 -35,44 -53,55 -18,12 -39,17 -62,17 -27,0 -49,-6 -64,-19 -15,-13 -25,-32 -28,-58zm0 -38l0 -159c-41,24 -72,50 -92,78 -13,18 -20,37 -20,56 0,16 6,30 17,41 9,9 20,14 36,14 17,0 37,-10 59,-29zm691 -546l0 176 113 0 0 50 -113 0 0 296c0,28 1,46 4,54 2,8 7,15 13,19 6,5 12,8 18,8 22,0 43,-17 63,-50l15 11c-28,65 -73,98 -135,98 -30,0 -56,-8 -77,-25 -21,-17 -34,-36 -40,-57 -3,-12 -5,-43 -5,-94l0 -259 -63 0 0 -18c43,-30 80,-62 110,-96 30,-34 57,-71 79,-113l17 0zm-5014 -723l0 143 -223 0 0 -143 223 0zm-332 14c-89,24 -159,72 -224,136l70 111c50,-51 107,-89 176,-108l-23 -140zm-311 250c-27,48 -48,90 -66,142 -17,48 -28,96 -36,146l110 27c13,-77 33,-142 71,-211 3,-6 7,-12 10,-17l-88 -88zm-112 445l112 0 0 286 -112 0 0 -286zm0 430l112 0 0 286 -112 0 0 -286zm0 430l112 0 0 286 -112 0 0 -286zm0 430l112 0 0 286 -112 0 0 -286zm0 430l112 0 0 286 -112 0 0 -286zm0 430l112 0 0 286 -112 0 0 -286zm0 430l112 0 0 286 -112 0 0 -286zm0 430l112 0c0,94 -3,189 1,283l0 0 -112 8c-6,-95 -1,-195 -1,-290zm22 448c22,98 64,193 123,275l81 -99 -5 -7c-44,-62 -76,-136 -92,-210l-107 41zm219 378c68,57 145,95 233,108l12 -142c-70,-11 -129,-40 -184,-86l-61 120zm350 112l0 -143 223 0 0 143 -223 0zm335 0l0 -143 223 0 0 143 -223 0zm335 0l0 -143 223 0 0 143 -223 0zm335 0l0 -143 223 0 0 143 -223 0zm335 0l0 -143 223 0 0 143 -223 0zm335 0l0 -143 223 0 0 143 -223 0zm335 0l0 -143 223 0 0 143 -223 0zm335 0l0 -143 223 0 0 143 -223 0zm335 0l0 -143 223 0 0 143 -223 0zm335 0l0 -143 223 0 0 143 -223 0zm335 0l0 -143 223 0 0 143 -223 0zm335 0l0 -143 223 0 0 143 -223 0zm335 0l0 -143 223 0 0 143 -223 0zm335 0l0 -143 223 0 0 143 -223 0zm335 0l0 -143 223 0 0 143 -223 0zm335 0l0 -143 223 0 0 143 -223 0zm335 0l0 -143 63 0c48,0 95,-11 139,-31l37 135c-58,26 -113,38 -176,39l-63 0zm351 -110c75,-63 129,-141 171,-229l-96 -72c-31,69 -77,133 -135,182l61 120zm221 -376c26,-108 23,-192 23,-304l-112 0c0,97 4,171 -18,263l107 41zm23 -447l-112 0 0 -286 112 0 0 286zm0 -430l-112 0 0 -286 112 0 0 286zm0 -430l-112 0 0 -286 112 0 0 286zm0 -430l-112 0 0 -286 112 0 0 286zm0 -430l-112 0 0 -286 112 0 0 286zm0 -430l-112 0 0 -286 112 0 0 286zm0 -430l-112 0 0 -286 112 0 0 286zm0 -430l-112 0 0 -31c0,-75 -11,-144 -35,-215l-1 -3 102 -59c31,90 46,182 46,277l0 31zm-110 -445c-52,-83 -108,-148 -191,-201l-49 129c66,41 111,94 151,159l89 -87zm-309 -253c-77,-21 -155,-15 -234,-15l0 143c70,0 142,-7 211,12l23 -140zm-346 -15l0 143 -223 0 0 -143 223 0zm-335 0l0 143 -223 0 0 -143 223 0zm-335 0l0 143 -223 0 0 -143 223 0zm-335 0l0 143 -223 0 0 -143 223 0zm-335 0l0 143 -223 0 0 -143 223 0zm-670 0l0 143 -223 0 0 -143 223 0zm-335 0l0 143 -223 0 0 -143 223 0zm-335 0l0 143 -223 0 0 -143 223 0zm-335 0l0 143 -223 0 0 -143 223 0zm-670 0l0 143 -223 0 0 -143 223 0zm-335 0l0 143 -223 0 0 -143 223 0zm-335 0l0 143 -223 0 0 -143 223 0zm-335 0l0 143 -223 0 0 -143 223 0zm-2554 6497c0,-20 7,-36 21,-51 14,-14 31,-21 50,-21 20,0 36,7 50,21 14,14 21,31 21,51 0,20 -7,36 -21,50 -14,14 -30,20 -50,20 -20,0 -36,-7 -50,-20 -14,-14 -21,-30 -21,-50zm332 236c0,46 -11,82 -32,108 -21,26 -55,38 -101,38l-407 0c-45,0 -78,-13 -100,-39 -21,-26 -32,-62 -32,-108l0 -138 121 0 0 127c0,26 12,38 35,38l358 0c24,0 36,-13 36,-38l0 -127 121 0 0 138zm279 146l-58 0c-38,1 -69,-12 -92,-37 -22,-26 -34,-60 -34,-102l0 -396 119 0 0 362c-1,20 2,34 8,42 6,8 18,13 35,13l22 0 0 119zm-8 -385c0,-19 7,-36 21,-50 14,-14 31,-21 50,-21 19,0 36,7 50,21 14,14 21,31 21,50 0,19 -7,36 -21,50 -14,14 -31,21 -50,21 -19,0 -36,-7 -50,-21 -14,-14 -21,-31 -21,-50zm165 1c0,-20 7,-37 21,-51 14,-14 31,-21 51,-21 20,0 36,7 50,21 14,14 21,31 21,51 0,20 -7,36 -21,50 -14,14 -30,21 -50,21 -20,0 -37,-7 -51,-21 -14,-14 -21,-30 -21,-50zm169 238c0,40 -12,74 -37,103 -24,29 -56,43 -96,43l-225 0 0 -119 201 0c24,0 36,-13 36,-38l0 -127 121 0 0 138zm419 146l-30 0c-15,0 -28,-4 -37,-12 0,30 -6,58 -19,83 -13,26 -30,48 -52,68 -42,37 -90,55 -144,55l-119 0 -17 -119 130 0c26,0 50,-9 71,-27 21,-18 31,-40 31,-65l0 -268 119 0 0 133c0,11 3,19 9,25 6,6 15,8 28,8l31 0 0 119zm355 -174c0,49 -14,91 -43,124 -29,33 -68,50 -117,50 -50,0 -87,-15 -110,-46 -19,31 -51,46 -96,46l-20 0 0 -119 13 0c20,1 34,-4 44,-13 10,-9 14,-25 14,-46 0,-50 14,-92 44,-124 29,-32 66,-49 111,-49 47,0 86,17 115,51 30,34 45,76 45,125zm-99 -5c0,-41 -20,-62 -59,-62 -39,0 -59,21 -59,63 0,42 20,63 59,65 39,-3 59,-25 59,-66zm479 -476l-244 4c-28,0 -52,4 -73,13 -31,11 -63,51 -95,119l112 41c16,-35 30,-53 43,-52l257 -3 0 -122zm-103 654l-120 0 0 -504 120 0 0 504zm869 -28c0,62 -20,115 -59,158 -40,43 -90,64 -152,64l-117 0c-63,0 -114,-22 -151,-66 -37,-44 -56,-96 -56,-154l0 -181 120 0 0 191c0,26 10,47 31,65 20,18 43,27 70,27l99 0c24,0 47,-8 67,-23 21,-15 31,-35 31,-60 0,-24 -14,-39 -44,-43l-136 0 0 -141c0,-41 15,-78 47,-111 31,-33 69,-49 114,-49l112 0 7 120 -117 0c-17,0 -29,7 -35,21 -6,14 -9,32 -8,56 63,0 106,6 129,19 33,17 49,54 49,110zm601 28l-31 0c-29,0 -52,-4 -69,-13 -16,-8 -31,-18 -44,-29 -5,10 -17,19 -34,29 -18,9 -41,14 -71,14l-258 0 -17 -119 270 0c10,1 16,-2 19,-7 3,-5 1,-10 -4,-16l-186 -198 82 -83 244 261c14,15 27,26 37,33 10,7 20,10 31,10l31 0 0 119zm0 -403c0,-20 7,-37 21,-51 14,-14 31,-21 51,-21 20,0 36,7 50,21 14,14 21,31 21,51 0,20 -7,36 -21,50 -14,14 -30,21 -50,21 -20,0 -36,-7 -51,-21 -14,-14 -21,-30 -21,-50zm322 403l-103 0c-23,0 -40,-8 -51,-24 -12,16 -31,24 -57,24l-163 0 0 -119 120 0c27,0 40,-13 40,-38l0 -127 121 0 0 127c0,26 16,38 47,38l46 0 0 119zm239 -146c0,39 -12,73 -37,102 -24,29 -55,44 -93,44l-149 0 0 -119 124 0c24,0 36,-13 36,-38l0 -127 119 0 0 138zm-230 269c0,-20 7,-38 22,-52 14,-14 32,-22 52,-22 20,0 38,7 52,22 14,14 22,32 22,52 0,20 -7,38 -22,52 -14,14 -32,22 -52,22 -20,0 -38,-7 -52,-22 -14,-14 -22,-32 -22,-52zm910 -123l-74 0c-32,0 -64,-23 -95,-69 -28,51 -73,77 -134,77 -61,0 -106,-16 -136,-49 -29,-33 -44,-72 -44,-118 4,-48 20,-87 47,-119l33 -38 -22 -24 83 -83 266 276c19,19 44,28 76,28l0 119zm-258 -147c3,-17 -6,-37 -27,-58l-36 -35c-23,22 -38,39 -47,52 -8,13 -11,28 -8,43 3,15 10,27 21,36 11,9 24,13 39,13 15,0 27,-5 38,-13 11,-8 17,-21 20,-38zm246 -238c0,-19 7,-36 21,-50 14,-14 31,-21 50,-21 19,0 36,7 50,21 14,14 21,31 21,50 0,19 -7,36 -21,50 -14,14 -31,21 -50,21 -19,0 -36,-7 -50,-21 -14,-14 -21,-31 -21,-50zm165 1c0,-20 7,-37 21,-51 14,-14 31,-21 51,-21 20,0 36,7 50,21 14,14 21,31 21,51 0,20 -7,36 -21,50 -14,14 -30,21 -50,21 -20,0 -37,-7 -51,-21 -14,-14 -21,-30 -21,-50zm215 384l-93 0c-23,0 -40,-8 -51,-24 -12,16 -31,24 -57,24l-202 0 0 -119 159 0c27,0 40,-13 40,-38l0 -127 121 0 0 127c0,26 12,38 37,38l46 0 0 119zm691 0l-57 0c-33,0 -57,-9 -73,-28 -24,26 -54,38 -92,38 -48,0 -81,-15 -98,-44 -29,31 -67,46 -114,46 -53,-2 -87,-17 -101,-44 -14,21 -36,31 -67,31l-129 0 0 -119 90 0c28,0 42,-16 42,-47l0 -119 120 0 0 133c0,27 13,42 38,42 24,-1 36,-15 36,-42l0 -133 120 0 0 133c1,28 14,42 39,42 25,0 37,-14 37,-42l0 -133 120 0 0 139c0,18 10,26 30,26l59 0 0 119zm239 -146c0,39 -12,73 -37,102 -24,29 -55,44 -93,44l-149 0 0 -119 124 0c24,0 36,-13 36,-38l0 -127 119 0 0 138zm-231 269c0,-20 7,-38 22,-52 14,-14 32,-22 52,-22 20,0 38,7 52,22 14,14 22,32 22,52 0,20 -7,38 -22,52 -14,14 -32,22 -52,22 -20,0 -38,-7 -52,-22 -14,-14 -22,-32 -22,-52zm778 -134c0,51 -21,98 -64,141 -42,43 -94,65 -153,65l-118 0 -17 -119 122 0c40,-2 67,-11 83,-28 15,-17 23,-33 25,-49 -63,0 -111,-12 -142,-34 -36,-26 -54,-70 -55,-131 -1,-76 14,-126 44,-150 30,-24 68,-36 114,-36 46,0 84,17 115,51 30,34 46,82 46,143l0 146zm-120 -104l0 -66c1,-23 -3,-38 -11,-45 -8,-7 -18,-11 -31,-12 -13,-1 -24,3 -32,13 -9,10 -12,26 -12,48 1,22 7,38 20,49 13,11 35,15 66,13zm519 224c0,-20 7,-36 21,-50 14,-14 31,-21 50,-21 19,0 36,7 50,21 14,14 21,30 21,50 0,20 -7,37 -21,51 -14,14 -31,21 -50,21 -19,0 -36,-7 -50,-21 -14,-14 -21,-31 -21,-51zm165 0c0,-20 7,-36 21,-50 14,-14 31,-21 51,-21 20,0 36,7 50,21 14,14 20,30 20,50 0,20 -7,37 -20,51 -14,14 -30,21 -50,21 -20,0 -37,-7 -51,-21 -14,-14 -21,-31 -21,-51zm-81 130c0,-19 7,-36 21,-50 14,-14 30,-21 50,-21 20,0 36,7 51,21 14,14 21,31 21,50 0,19 -7,36 -21,50 -14,14 -31,21 -51,21 -20,0 -36,-7 -50,-21 -14,-14 -21,-31 -21,-50zm418 -384c0,46 -11,82 -32,108 -21,26 -55,38 -101,38l-407 0c-45,0 -78,-13 -100,-39 -21,-26 -32,-62 -32,-108l0 -138 121 0 0 127c0,26 12,38 35,38l358 0c24,0 36,-13 36,-38l0 -127 121 0 0 138zm273 146l-58 0c-38,1 -69,-12 -92,-37 -22,-26 -34,-60 -34,-102l0 -396 119 0 0 362c-1,20 2,34 8,42 6,8 18,13 35,13l22 0 0 119zm51 131c0,-20 7,-36 21,-50 14,-14 31,-21 50,-21 19,0 36,7 50,21 14,14 21,30 21,50 0,20 -7,36 -21,51 -14,14 -31,21 -50,21 -19,0 -36,-7 -50,-21 -14,-14 -21,-31 -21,-51zm165 0c0,-20 7,-36 21,-50 14,-14 31,-21 51,-21 20,0 36,7 50,21 14,14 21,30 21,50 0,20 -7,36 -21,51 -14,14 -30,21 -50,21 -20,0 -37,-7 -51,-21 -14,-14 -21,-31 -21,-51zm-80 130c0,-19 7,-36 21,-50 14,-14 30,-21 50,-21 20,0 36,7 50,21 14,14 21,31 21,50 0,19 -7,36 -21,50 -14,14 -31,21 -50,21 -20,0 -36,-7 -50,-21 -14,-14 -21,-31 -21,-50zm298 -418l-176 98c-47,26 -84,42 -113,49 -28,7 -54,10 -79,10l-98 0 0 -119 78 0c52,0 93,-6 125,-19 8,-3 53,-26 134,-72 -3,-9 -9,-17 -18,-24 -9,-7 -27,-11 -52,-11l-179 0 -16 -108 216 0c118,0 177,65 177,195zm535 0c0,45 -16,84 -47,117 -31,33 -73,49 -124,49 -51,0 -92,-17 -122,-49 -30,-33 -45,-72 -46,-118 2,-37 13,-69 34,-97l47 -60 -22 -24 82 -83 157 167c27,29 40,62 40,99zm-141 -55l-36 -35 -38 40c-18,23 -22,45 -14,67 8,22 26,33 52,34 26,1 45,-9 56,-30 11,-21 5,-46 -20,-76zm515 200c0,51 -21,98 -64,141 -42,43 -93,65 -153,65l-118 0 -17 -119 122 0c40,-2 67,-11 83,-28 15,-17 23,-33 25,-49 -63,0 -111,-12 -142,-34 -36,-26 -54,-70 -55,-131 -1,-76 14,-126 44,-150 30,-24 68,-36 114,-36 46,0 84,17 115,51 30,34 46,82 46,143l0 146zm-120 -104l0 -66c1,-23 -3,-38 -11,-45 -8,-7 -18,-11 -31,-12 -13,-1 -24,3 -32,13 -9,10 -12,26 -12,48 1,22 7,38 20,49 13,11 35,15 66,13zm573 116l-30 0c-15,0 -28,-4 -37,-12 0,30 -6,58 -19,83 -13,26 -30,48 -52,68 -42,37 -90,55 -144,55l-119 0 -17 -119 130 0c26,0 50,-9 71,-27 21,-18 31,-40 31,-65l0 -268 119 0 0 133c0,11 3,19 9,25 6,6 15,8 28,8l31 0 0 119zm292 -618l-301 108 -9 -45 302 -111 8 48zm58 506c0,30 -10,56 -30,78 -20,22 -56,33 -109,33l-250 0 0 -119 250 0c6,0 10,-4 11,-11 1,-8 -1,-13 -4,-16l-206 -216 -15 -109 322 -118 18 120 -186 72 177 205c15,23 23,50 23,80z"/>
 </g>
</svg>
